<svg width="94" height="104" viewBox="0 0 94 104" fill="none" xmlns="http://www.w3.org/2000/svg">
<path d="M18.9826 48.9501C19.7419 48.4927 20.5012 47.8827 21.2605 47.2727L22.3235 46.3578C22.4753 46.2053 22.779 46.0528 22.9309 45.9003L23.3865 45.4428C23.9939 44.8328 24.7532 44.0704 25.3606 43.3079C27.9422 40.2581 30.0682 36.9032 31.2831 33.0909C32.3461 29.4311 32.8017 25.4663 32.3461 21.654C32.1942 20.739 32.0424 19.824 31.8905 18.9091L31.7387 18.2991C31.7387 18.1466 31.5868 17.8416 31.5868 17.6891L31.1312 16.4692C30.8275 15.5543 30.6757 14.7918 30.2201 14.0293C29.7645 13.2669 29.4608 12.5044 29.1571 11.7419C28.3978 10.3695 27.6385 8.99707 26.7274 7.77713C26.2718 7.16715 25.9681 6.55718 25.5125 6.09971C25.0569 5.64223 24.6013 5.03226 24.1458 4.72727C22.9309 3.35484 21.4123 2.28739 19.59 1.82991C18.3752 1.67742 17.464 2.43988 17.0084 3.81232C16.8566 4.26979 16.8566 4.57478 16.7047 5.03226C16.7047 5.18475 16.5529 5.64223 16.5529 6.09971C16.401 7.16715 16.401 8.2346 16.2492 9.45454C16.2492 10.0645 16.0973 10.6745 16.0973 11.4369C16.0973 12.1994 15.9454 12.8094 15.9454 13.5718L15.7936 14.6393C15.7936 14.7918 15.7936 14.9443 15.7936 15.2493C15.7936 15.4018 15.7936 15.5543 15.6417 15.8592C15.4899 16.6217 15.4899 17.3842 15.338 18.2991C14.8824 21.8065 14.1232 25.1613 13.0601 28.6686C11.9971 32.0235 10.6304 35.2258 8.95999 38.4282C8.50441 39.1906 8.2007 39.9531 7.74512 40.5631L7.59326 41.173L7.28955 41.6305L6.68212 42.6979C6.22654 43.3079 5.92283 44.0704 5.61911 44.5279C5.16354 45.1378 4.85982 45.7478 4.55611 46.2053C3.94868 47.2727 3.18939 48.3402 2.73381 49.2551C2.4301 49.7126 2.27824 50.1701 2.12638 50.6276C1.97452 50.9326 1.82267 51.39 1.67081 51.695C1.21524 53.0675 1.51895 54.1349 2.73381 54.5924C4.55611 55.0499 6.3784 54.8974 8.2007 54.1349C8.80813 53.9824 9.41556 53.8299 10.1748 53.5249C10.7823 53.2199 11.5416 52.915 12.3009 52.61C13.8194 52 15.338 51.2375 16.7047 50.3226C17.464 49.8651 18.2233 49.4076 18.9826 48.9501Z" fill="white"/>
<path d="M86.8625 19.9765C85.0402 18.6041 80.1807 21.1965 73.499 25.9237C72.5878 26.5337 71.8285 27.1437 70.9174 27.7536L68.3358 29.8885C66.5135 31.261 64.3875 32.7859 62.4133 34.4633C58.1613 37.6657 53.6056 41.173 48.898 44.8328C44.0386 48.4926 39.4828 52 35.2308 55.2023C33.1048 56.7273 31.1306 58.4047 29.3083 59.7771L26.5749 61.912C25.6638 62.522 24.9045 63.2844 24.1452 63.8944C17.919 69.0792 14.2744 72.8915 15.4893 74.7214C16.0967 75.6363 17.7671 75.9413 20.3487 75.6363C20.9562 75.4839 21.7155 75.4839 22.4747 75.3314C23.234 75.1789 23.9933 75.0264 24.9045 74.7214C26.8786 74.2639 28.7009 73.6539 30.5232 72.8915C31.5862 72.434 32.6492 72.129 33.7122 71.6715C34.7752 71.2141 35.9901 70.7566 37.0531 70.1466C39.331 69.0792 41.7607 67.8592 44.3423 66.4868C49.6573 63.4369 54.8205 60.0821 59.6799 56.4223C64.3875 52.7624 68.9432 48.7976 73.1953 44.5278C75.0176 42.5454 76.8398 40.563 78.3584 38.7331C79.1177 37.8182 79.877 36.9032 80.4844 35.9882C81.0919 35.0733 81.8512 34.1583 82.3067 33.3959C83.3697 31.8709 84.2809 30.346 85.192 28.6686C85.6476 27.9061 85.9513 27.2962 86.255 26.6862C86.5587 26.0762 86.7106 25.4663 87.0143 24.8563C87.9255 22.1114 87.7736 20.5865 86.8625 19.9765Z" fill="white"/>
<path d="M77.2952 84.0235C76.9915 83.7185 76.6878 83.261 76.2322 82.956C75.4729 82.1936 74.5618 81.5836 73.4988 80.9736C73.0432 80.6687 72.4358 80.3637 71.8283 80.0587C71.2209 79.7537 70.6135 79.6012 70.006 79.2962C68.6393 78.8387 67.2726 78.5338 65.754 78.3813C62.4131 77.9238 58.9204 78.2288 55.5795 78.9912C51.7831 79.9062 48.1385 81.4311 44.7976 83.261C43.1272 84.176 41.4568 85.2434 39.9382 86.3109C39.1789 86.9209 38.4196 87.3783 37.8122 87.9883C37.0529 88.5983 36.4455 89.2082 35.838 89.6657C34.6232 90.7332 33.4083 91.9531 32.3453 93.0206C31.8897 93.6305 31.2823 94.088 30.8267 94.698C30.3711 95.3079 29.9156 95.7654 29.6119 96.2229C28.397 97.5953 27.6377 99.2728 27.334 101.103C27.334 102.323 27.9414 102.78 29.3081 102.78C29.6119 102.78 30.0674 102.78 30.3711 102.628C30.8267 102.628 31.2823 102.475 31.7379 102.475C32.649 102.323 33.712 102.018 34.9269 101.713C35.5343 101.56 36.1417 101.408 36.7492 101.103L38.7233 100.493C40.09 100.035 41.6086 99.5777 43.1272 99.1203C46.1644 98.2053 49.5052 97.2904 52.998 96.3754C56.4907 95.6129 59.8316 95.003 62.7169 94.393C64.2354 94.2405 65.6022 93.9355 66.9689 93.783L68.943 93.478C69.5505 93.3255 70.1579 93.3255 70.7653 93.1731C71.9802 92.8681 73.0432 92.7156 73.9543 92.5631C74.4099 92.4106 74.8655 92.2581 75.3211 92.1056C75.7766 91.9531 76.0803 91.8006 76.5359 91.6481C77.7508 91.1906 78.8138 90.1232 79.2694 88.9033C79.5731 87.5308 79.1175 86.0059 78.2064 84.9384C77.9026 84.786 77.5989 84.481 77.2952 84.0235Z" fill="white"/>
</svg>
