<svg width="109" height="112" viewBox="0 0 109 112" fill="none" xmlns="http://www.w3.org/2000/svg">
<g clip-path="url(#clip0_527_675)">
<path d="M33.8088 65.4386C34.1447 64.8039 34.4169 64.0633 34.6891 63.3227L35.0447 62.2435C35.0864 62.0742 35.2335 61.8415 35.2752 61.6722L35.4003 61.1643C35.567 60.4871 35.7755 59.6407 35.8786 58.8577C36.3963 55.6622 36.4704 52.4454 35.7209 49.2917C34.9297 46.3073 33.5895 43.365 31.6806 40.9092C31.1929 40.3375 30.7053 39.7659 30.2176 39.1943L29.8574 38.8343C29.7937 38.7285 29.5608 38.5802 29.4971 38.4744L28.6713 37.818C28.0782 37.3098 27.6542 36.844 27.0195 36.5051C26.3847 36.1662 25.8554 35.7638 25.326 35.3615C24.2256 34.7261 23.1252 34.0907 21.9831 33.6246C21.412 33.3916 20.9464 33.0951 20.4391 32.9679C19.9317 32.8406 19.3607 32.6076 18.917 32.5862C17.5004 32.1412 16.0004 32.0347 14.5444 32.4785C13.6375 32.8802 13.3236 33.7901 13.5807 34.933C13.6665 35.314 13.7939 35.5257 13.8796 35.9067C13.9433 36.0125 14.029 36.3935 14.2202 36.711C14.5607 37.5154 15.0067 38.2563 15.4109 39.1665C15.6658 39.5899 15.8152 40.0767 16.1337 40.606C16.4523 41.1352 16.6017 41.622 16.9203 42.1512L17.2608 42.9556C17.3245 43.0615 17.3882 43.1673 17.5157 43.379C17.5794 43.4848 17.6431 43.5907 17.6651 43.8658C17.8782 44.4585 18.1968 44.9877 18.4736 45.6862C19.6227 48.311 20.4973 50.9569 21.2247 53.8354C21.8885 56.6081 22.2777 59.4019 22.4562 62.3225C22.4585 63.0421 22.5662 63.6982 22.5048 64.3119L22.6543 64.7987L22.6346 65.2432L22.6589 66.2379C22.5975 66.8516 22.7053 67.5077 22.6856 67.9521C22.6242 68.5658 22.6682 69.1161 22.6486 69.5605C22.6729 70.5552 22.5918 71.6134 22.6579 72.4388C22.6382 72.8832 22.7239 73.2642 22.8096 73.6452C22.8316 73.9203 22.9174 74.3013 22.9394 74.5764C23.1965 75.7194 23.8533 76.3334 24.8877 76.1434C26.3437 75.6996 27.5448 74.8324 28.4911 73.5419C28.849 73.1822 29.207 72.8226 29.6066 72.2937C29.9008 71.8283 30.3004 71.2993 30.7 70.7704C31.4992 69.7126 32.2347 68.549 32.8011 67.3429C33.137 66.7081 33.4729 66.0734 33.8088 65.4386Z" fill="#AFDD76"/>
<path d="M68.8202 16.9688C66.982 16.7775 64.692 20.6071 62.0292 26.6798C61.6516 27.4838 61.3794 28.2245 61.0018 29.0285L60.1018 31.5889C59.4104 33.3028 58.5718 35.2495 57.9023 37.2386C56.2888 41.2377 54.592 45.5755 52.8534 50.0825C51.0095 54.653 49.3126 58.9908 47.6992 62.99C46.8606 64.9367 46.1911 66.9257 45.4996 68.6397L44.4942 71.2635C44.1166 72.0675 43.9082 72.914 43.636 73.6546C41.4805 79.8545 40.5435 84.0233 42.1512 84.7859C42.9551 85.1672 44.242 84.681 45.9064 83.3908C46.2643 83.0312 46.7914 82.714 47.2547 82.2909C47.718 81.8678 48.1813 81.4448 48.6863 80.8524C49.8655 79.7101 50.8755 78.5254 51.8218 77.2349C52.3685 76.4732 52.9789 75.8174 53.5257 75.0558C54.0724 74.2941 54.7245 73.469 55.2075 72.6016C56.3426 70.909 57.5194 69.0471 58.7379 67.016C61.1529 62.6785 63.3351 58.1928 65.1791 53.6223C66.9176 49.1153 68.4233 44.46 69.5908 39.7199C70.0275 37.5826 70.4641 35.4452 70.7537 33.5407C70.8985 32.5884 71.0432 31.6361 71.0826 30.7472C71.122 29.8584 71.2667 28.9061 71.2644 28.1865C71.3652 26.684 71.3605 25.2448 71.2921 23.6999C71.2898 22.9803 71.2458 22.43 71.2018 21.8798C71.1577 21.3295 71.0083 20.8427 70.9643 20.2924C70.45 18.0065 69.7075 17.0115 68.8202 16.9688Z" fill="#AFDD76"/>
<path d="M88.9374 65.4212C88.5991 65.3364 88.1972 65.1457 87.7536 65.1244C86.908 64.9124 86.0207 64.8696 85.028 64.8904C84.5844 64.869 84.0354 64.9111 83.4863 64.9532C82.9373 64.9953 82.452 65.1432 81.9029 65.1853C80.7632 65.4387 79.6871 65.798 78.5693 66.3266C76.0593 67.4048 73.7624 69.0757 71.762 71.0007C69.5091 73.2219 67.6165 75.803 66.0621 78.4689C65.2849 79.8018 64.5714 81.2406 63.9633 82.616C63.6911 83.3566 63.3552 83.9914 63.1884 84.6685C62.9162 85.4091 62.7494 86.0863 62.519 86.6576C62.1217 87.9061 61.7881 89.2604 61.4962 90.4454C61.4348 91.0591 61.2043 91.6304 61.143 92.2441C61.0816 92.8578 60.9565 93.3657 60.9368 93.8101C60.667 95.2703 60.8407 96.7518 61.3944 98.1489C61.9041 98.9956 62.5168 99.0594 63.4655 98.4884C63.6763 98.3615 63.9925 98.1712 64.1396 97.9385C64.4558 97.7481 64.7083 97.4519 65.0245 97.2616C65.5933 96.7751 66.2037 96.1193 66.9195 95.4001C67.2774 95.0404 67.6353 94.6808 67.9295 94.2154L69.045 92.9672C69.8025 92.0787 70.6654 91.1267 71.5283 90.1747C73.2542 88.2708 75.1909 86.24 77.2329 84.1457C79.3387 82.1573 81.4028 80.3381 83.1506 78.7093C84.141 77.969 84.9622 77.1863 85.8472 76.5095L87.09 75.473C87.4479 75.1134 87.8695 74.8596 88.2275 74.5C88.9433 73.7808 89.6174 73.2308 90.1861 72.7443C90.4386 72.4481 90.6911 72.152 90.9437 71.8558C91.1962 71.5596 91.3433 71.3269 91.5958 71.0307C92.2479 70.2056 92.5398 69.0206 92.3463 67.9835C91.9837 66.904 91.0304 66.0359 89.952 65.6756C89.6775 65.6967 89.3393 65.6118 88.9374 65.4212Z" fill="#AFDD76"/>
</g>
<defs>
<clipPath id="clip0_527_675">
<rect width="76.153" height="84.2543" fill="white" transform="translate(0.182617 39.3927) rotate(-31.0438)"/>
</clipPath>
</defs>
</svg>
